#!OML:ASF H:\Pregnant\Project 1\Capture day 1\Session 1\femalepreg.ASF
:FULLY-SPECIFIED
:DEGREES
190
root 5.15247 15.7351 27.9983 -180.838 -87.2477 -161.425
lowerback -30.9657 -0.297333 -3.5719
upperback -3.39097 0.00801302 2.76077
thorax 12.4137 -0.392689 4.87634
lowerneck -9.50729 4.4963 5.10272
upperneck 28.951 5.65095 -3.71642
head 11.1844 2.38646 -1.59223
rclavicle 1.10325e-014 6.75868e-015
rhumerus 4.86144 53.818 -95.0696
rradius 146.877
rwrist -41.9699
rhand -45.236 -20.3185
rfingers 7.12502
rthumb -18.0107 -49.5045
lclavicle 1.10325e-014 6.75868e-015
lhumerus 7.3096 -39.3084 98.0937
lradius 145.553
lwrist 45.9263
lhand -46.1435 -22.2363
lfingers 7.12502
lthumb -18.8837 6.8671
rfemur -24.8798 18.7622 20.07
rtibia 27.3052
rfoot -15.7009 -15.7078
rtoes -2.52926
lfemur 0 0 0
ltibia 0
lfoot 0 0
ltoes 0
191
root 5.15118 15.7353 27.9984 -180.819 -87.2596 -161.432
lowerback -30.9647 -0.290673 -3.55581
upperback -3.38132 0.0116196 2.76249
thorax 12.424 -0.390502 4.87107
lowerneck -9.49139 4.48991 5.09179
upperneck 28.9316 5.63892 -3.69624
head 11.1721 2.3829 -1.58462
rclavicle 2.33572e-015 3.10104e-014
rhumerus 4.89108 53.7931 -95.0383
rradius 146.868
rwrist -42.0198
rhand -45.2325 -20.3572
rfingers 7.12502
rthumb -18.0073 -49.5436
lclavicle 2.33572e-015 3.10104e-014
lhumerus 7.30693 -39.3069 98.0879
lradius 145.539
lwrist 45.9651
lhand -46.1098 -22.2261
lfingers 7.12502
lthumb -18.8513 6.88037
rfemur -24.8851 18.768 20.0633
rtibia 27.3029
rfoot -15.7005 -15.7264
rtoes -2.53153
lfemur 0 0 0
ltibia 0
lfoot 0 0
ltoes 0
192
root 5.14983 15.7355 27.9986 -180.739 -87.2713 -161.499
lowerback -30.9672 -0.265088 -3.52761
upperback -3.36937 0.0397513 2.73773
thorax 12.4352 -0.375957 4.83999
lowerneck -9.48141 4.4723 5.1106
upperneck 28.9052 5.60181 -3.66594
head 11.1577 2.37269 -1.58138
rclavicle -1.4238e-014 -4.37326e-015
rhumerus 4.94095 53.7137 -95.0013
rradius 146.848
rwrist -42.0586
rhand -45.2447 -20.3123
rfingers 7.12502
rthumb -18.0191 -49.4976
lclavicle -1.4238e-014 -4.37326e-015
lhumerus 7.31563 -39.33 98.0521
lradius 145.521
lwrist 46.0092
lhand -46.0706 -22.1873
lfingers 7.12502
lthumb -18.8136 6.92289
rfemur -24.8934 18.773 20.0535
rtibia 27.3039
rfoot -15.7009 -15.7455
rtoes -2.53182
lfemur 0 0 0
ltibia 0
lfoot 0 0
ltoes 0
193
root 5.14849 15.7356 27.9988 -180.592 -87.2814 -161.634
lowerback -30.9719 -0.218179 -3.48286
upperback -3.35192 0.0945795 2.68412
thorax 12.4505 -0.34784 4.77902
lowerneck -9.48522 4.44242 5.15623
upperneck 28.8699 5.53868 -3.62512
head 11.1419 2.35517 -1.58179
rclavicle 1.07841e-014 2.38542e-015
rhumerus 5.03335 53.5682 -94.9368
rradius 146.806
rwrist -42.0542
rhand -45.2518 -20.2001
rfingers 7.12502
rthumb -18.026 -49.3847
lclavicle 1.07841e-014 2.38542e-015
lhumerus 7.34932 -39.3745 97.9731
lradius 145.488
lwrist 46.0354
lhand -46.0249 -22.1368
lfingers 7.12502
lthumb -18.7696 6.97765
rfemur -24.9029 18.7796 20.0407
rtibia 27.3085
rfoot -15.7002 -15.7659
rtoes -2.54898
lfemur 0 0 0
ltibia 0
lfoot 0 0
ltoes 0
194
root 5.14722 15.7358 27.9991 -180.383 -87.2921 -161.833
lowerback -30.9751 -0.153746 -3.41862
upperback -3.32925 0.169964 2.60281
thorax 12.4687 -0.308797 4.68545
lowerneck -9.50473 4.40288 5.2239
upperneck 28.8215 5.45496 -3.57595
head 11.1238 2.33206 -1.58507
rclavicle -1.85615e-014 -3.97569e-016
rhumerus 5.18954 53.3443 -94.8297
rradius 146.726
rwrist -41.9537
rhand -45.2237 -20.0808
rfingers 7.12502
rthumb -17.9989 -49.268
lclavicle -1.85615e-014 -3.97569e-016
lhumerus 7.42313 -39.4216 97.8281
lradius 145.429
lwrist 46.0112
lhand -45.9679 -22.1286
lfingers 7.12502
lthumb -18.7148 6.99113
rfemur -24.9149 18.7886 20.023
rtibia 27.3179
rfoot -15.7049 -15.7853
rtoes -2.53786
lfemur 0 0 0
ltibia 0
lfoot 0 0
ltoes 0
195
root 5.14607 15.736 27.9993 -180.148 -87.3003 -162.061
lowerback -30.9686 -0.0806283 -3.33481
upperback -3.302 0.253412 2.49991
thorax 12.4875 -0.264558 4.56102
lowerneck -9.53786 4.36128 5.31412
upperneck 28.7495 5.36416 -3.52701
head 11.0998 2.30872 -1.59266
rclavicle 1.20513e-014 1.19271e-014
rhumerus 5.42903 53.0427 -94.669
rradius 146.589
rwrist -41.673
rhand -45.1257 -19.9999
rfingers 7.12502
rthumb -17.9046 -49.1957
lclavicle 1.20513e-014 1.19271e-014
lhumerus 7.55026 -39.4468 97.5947
lradius 145.325
lwrist 45.8543
lhand -45.8857 -22.3032
lfingers 7.12502
lthumb -18.6357 6.82417
rfemur -24.9257 18.8009 20.0045
rtibia 27.3305
rfoot -15.713 -15.8037
rtoes -2.51814
lfemur 0 0 0
ltibia 0
lfoot 0 0
ltoes 0
